# xmcd CD database file
#
# Track frame offsets:
#	150
#	13344
#	31535
#	41888
#
# Disc length: 726 seconds
#
# Revision: 0
# Processed by: cddbd v1.5.2PL0 Copyright (c) Steve Scherf et al.
# Submitted via: CDex 1.51
#
DISCID=2902d404
DTITLE=Dead Ringer Band - A Matter Of Time
DYEAR=1992
DGENRE=Country
TTITLE0=A Matter Of Time
TTITLE1=Diamantina Drover
TTITLE2=Poor Ned
TTITLE3=Strong Enough To Bend
EXTD=YEAR: 1992
EXTT0=
EXTT1=
EXTT2=
EXTT3=
PLAYORDER=
